<svg width="355" height="335" viewBox="0 0 355 335" fill="none" xmlns="http://www.w3.org/2000/svg">
<mask id="path-1-inside-1_0_1" fill="white">
<path d="M178 71C204.031 71 229.186 79.3573 248.836 94.5338C268.486 109.71 281.308 130.685 284.942 153.597C288.577 176.509 282.779 199.817 268.616 219.231C254.453 238.645 232.878 252.86 207.862 259.257C182.846 265.655 156.071 263.806 132.467 254.051C108.862 244.296 90.016 227.29 79.3962 206.165C68.7765 185.039 67.098 161.215 74.6697 139.076C82.2414 116.938 98.5537 97.9756 120.605 85.6787L124.799 91.6219C104.36 103.02 89.2397 120.597 82.2214 141.117C75.2031 161.637 76.7589 183.721 86.6025 203.302C96.4462 222.884 113.915 238.647 135.795 247.689C157.674 256.731 182.491 258.445 205.679 252.515C228.867 246.585 248.866 233.409 261.993 215.414C275.121 197.419 280.495 175.814 277.127 154.576C273.758 133.339 261.873 113.897 243.659 99.8298C225.445 85.7625 202.129 78.016 178 78.016L178 71Z"/>
</mask>
<path d="M178 71C204.031 71 229.186 79.3573 248.836 94.5338C268.486 109.71 281.308 130.685 284.942 153.597C288.577 176.509 282.779 199.817 268.616 219.231C254.453 238.645 232.878 252.86 207.862 259.257C182.846 265.655 156.071 263.806 132.467 254.051C108.862 244.296 90.016 227.29 79.3962 206.165C68.7765 185.039 67.098 161.215 74.6697 139.076C82.2414 116.938 98.5537 97.9756 120.605 85.6787L124.799 91.6219C104.36 103.02 89.2397 120.597 82.2214 141.117C75.2031 161.637 76.7589 183.721 86.6025 203.302C96.4462 222.884 113.915 238.647 135.795 247.689C157.674 256.731 182.491 258.445 205.679 252.515C228.867 246.585 248.866 233.409 261.993 215.414C275.121 197.419 280.495 175.814 277.127 154.576C273.758 133.339 261.873 113.897 243.659 99.8298C225.445 85.7625 202.129 78.016 178 78.016L178 71Z" fill="white" stroke="#42175B" stroke-width="14" mask="url(#path-1-inside-1_0_1)"/>
<path d="M178 71V207.058L178 335" stroke="#42175B" stroke-width="8"/>
<mask id="path-3-inside-2_0_1" fill="white">
<path d="M177.5 335C134.361 335 92.6976 320.175 60.2993 293.295C27.901 266.415 6.98498 229.322 1.46114 188.948C-4.06269 148.574 6.18377 107.683 30.2851 73.9202C54.3865 40.1569 90.693 15.832 132.418 5.4926C174.143 -4.84685 218.43 -0.493111 257 17.74C295.571 35.973 325.784 66.8374 341.994 104.563C358.203 142.289 359.298 184.295 345.074 222.727C330.85 261.16 302.282 293.389 264.708 313.39L254.953 297.071C288.324 279.307 313.697 250.683 326.33 216.55C338.962 182.416 337.99 145.109 323.594 111.603C309.198 78.0972 282.363 50.6853 248.107 34.4918C213.851 18.2982 174.518 14.4315 137.461 23.6144C100.403 32.7973 68.1577 54.4012 46.7522 84.3878C25.3468 114.374 16.2465 150.691 21.1524 186.549C26.0584 222.406 44.6348 255.351 73.4091 279.224C102.183 303.097 139.186 316.264 177.5 316.264L177.5 335Z"/>
</mask>
<path d="M177.5 335C134.361 335 92.6976 320.175 60.2993 293.295C27.901 266.415 6.98498 229.322 1.46114 188.948C-4.06269 148.574 6.18377 107.683 30.2851 73.9202C54.3865 40.1569 90.693 15.832 132.418 5.4926C174.143 -4.84685 218.43 -0.493111 257 17.74C295.571 35.973 325.784 66.8374 341.994 104.563C358.203 142.289 359.298 184.295 345.074 222.727C330.85 261.16 302.282 293.389 264.708 313.39L254.953 297.071C288.324 279.307 313.697 250.683 326.33 216.55C338.962 182.416 337.99 145.109 323.594 111.603C309.198 78.0972 282.363 50.6853 248.107 34.4918C213.851 18.2982 174.518 14.4315 137.461 23.6144C100.403 32.7973 68.1577 54.4012 46.7522 84.3878C25.3468 114.374 16.2465 150.691 21.1524 186.549C26.0584 222.406 44.6348 255.351 73.4091 279.224C102.183 303.097 139.186 316.264 177.5 316.264L177.5 335Z" stroke="#42175B" stroke-width="24" mask="url(#path-3-inside-2_0_1)"/>
</svg>
