<svg width="1093" height="264" viewBox="0 0 1093 264" fill="none" xmlns="http://www.w3.org/2000/svg">
<mask id="path-1-inside-1_0_1" fill="white">
<path d="M161 56C184.621 56 207.447 62.6162 225.277 74.6309C243.108 86.6456 254.742 103.25 258.04 121.389C261.338 139.528 256.077 157.98 243.226 173.35C230.374 188.719 210.797 199.972 188.097 205.037C165.397 210.102 141.102 208.638 119.683 200.915C98.2641 193.192 81.1627 179.73 71.5262 163.005C61.8898 146.281 60.3667 127.42 67.2373 109.894C74.1079 92.3676 88.9099 77.3557 108.919 67.6207L112.725 72.3257C94.1784 81.3492 80.4583 95.2641 74.0898 111.509C67.7213 127.755 69.1331 145.237 78.0653 160.739C86.9975 176.242 102.849 188.72 122.703 195.879C142.556 203.037 165.076 204.394 186.117 199.699C207.158 195.005 225.304 184.574 237.216 170.328C249.129 156.081 254.005 138.978 250.948 122.165C247.891 105.351 237.107 89.9603 220.58 78.8236C204.052 67.687 182.895 61.5543 161 61.5543L161 56Z"/>
</mask>
<path d="M161 56C184.621 56 207.447 62.6162 225.277 74.6309C243.108 86.6456 254.742 103.25 258.04 121.389C261.338 139.528 256.077 157.98 243.226 173.35C230.374 188.719 210.797 199.972 188.097 205.037C165.397 210.102 141.102 208.638 119.683 200.915C98.2641 193.192 81.1627 179.73 71.5262 163.005C61.8898 146.281 60.3667 127.42 67.2373 109.894C74.1079 92.3676 88.9099 77.3557 108.919 67.6207L112.725 72.3257C94.1784 81.3492 80.4583 95.2641 74.0898 111.509C67.7213 127.755 69.1331 145.237 78.0653 160.739C86.9975 176.242 102.849 188.72 122.703 195.879C142.556 203.037 165.076 204.394 186.117 199.699C207.158 195.005 225.304 184.574 237.216 170.328C249.129 156.081 254.005 138.978 250.948 122.165C247.891 105.351 237.107 89.9603 220.58 78.8236C204.052 67.687 182.895 61.5543 161 61.5543L161 56Z" fill="white" stroke="#42175B" stroke-width="14" mask="url(#path-1-inside-1_0_1)"/>
<path d="M160 56V163.197L160 264" stroke="#42175B" stroke-width="8"/>
<mask id="path-3-inside-2_0_1" fill="white">
<path d="M160.452 264C121.456 264 83.7946 252.317 54.5079 231.134C25.2213 209.951 6.31411 180.719 1.32081 148.902C-3.67249 117.085 5.58986 84.8609 27.3764 58.2535C49.163 31.6461 81.9825 12.4766 119.7 4.3285C157.417 -3.81961 197.451 -0.388601 232.317 13.9801C267.183 28.3489 294.495 52.6718 309.147 82.4022C323.8 112.133 324.79 145.235 311.932 175.523C299.074 205.81 273.249 231.208 239.284 246.97L230.466 234.11C260.632 220.111 283.568 197.554 294.988 170.654C306.407 143.755 305.528 114.355 292.515 87.9501C279.501 61.5453 255.244 39.9431 224.278 27.1816C193.312 14.4201 157.757 11.3729 124.258 18.6095C90.7599 25.8462 61.6115 42.8714 42.262 66.5026C22.9124 90.1338 14.6861 118.753 19.1209 147.011C23.5556 175.27 40.3479 201.232 66.3586 220.045C92.3693 238.858 125.818 249.235 160.452 249.235L160.452 264Z"/>
</mask>
<path d="M160.452 264C121.456 264 83.7946 252.317 54.5079 231.134C25.2213 209.951 6.31411 180.719 1.32081 148.902C-3.67249 117.085 5.58986 84.8609 27.3764 58.2535C49.163 31.6461 81.9825 12.4766 119.7 4.3285C157.417 -3.81961 197.451 -0.388601 232.317 13.9801C267.183 28.3489 294.495 52.6718 309.147 82.4022C323.8 112.133 324.79 145.235 311.932 175.523C299.074 205.81 273.249 231.208 239.284 246.97L230.466 234.11C260.632 220.111 283.568 197.554 294.988 170.654C306.407 143.755 305.528 114.355 292.515 87.9501C279.501 61.5453 255.244 39.9431 224.278 27.1816C193.312 14.4201 157.757 11.3729 124.258 18.6095C90.7599 25.8462 61.6115 42.8714 42.262 66.5026C22.9124 90.1338 14.6861 118.753 19.1209 147.011C23.5556 175.27 40.3479 201.232 66.3586 220.045C92.3693 238.858 125.818 249.235 160.452 249.235L160.452 264Z" stroke="#42175B" stroke-width="24" mask="url(#path-3-inside-2_0_1)"/>
<path d="M405.624 191.56C392.739 191.56 383.096 187.805 376.696 180.296C370.296 172.701 367.096 162.12 367.096 148.552C367.096 141.896 368.12 135.837 370.168 130.376C372.216 124.829 375.117 120.051 378.872 116.04C382.627 112.029 387.021 108.957 392.056 106.824C397.176 104.605 402.808 103.496 408.952 103.496C414.584 103.496 419.704 103.88 424.312 104.648C429.005 105.416 432.675 106.141 435.32 106.824V130.888H424.568L421.88 117.704C420.003 117.021 418.04 116.467 415.992 116.04C413.944 115.528 411.811 115.272 409.592 115.272C404.899 115.272 401.144 116.296 398.328 118.344C395.597 120.392 393.635 123.848 392.44 128.712C391.245 133.491 390.648 140.019 390.648 148.296C390.648 155.293 391.117 160.883 392.056 165.064C392.995 169.245 394.275 172.403 395.896 174.536C397.603 176.669 399.608 178.12 401.912 178.888C404.216 179.571 406.776 179.912 409.592 179.912C410.957 179.912 412.365 179.827 413.816 179.656C415.267 179.485 416.717 179.229 418.168 178.888C419.619 178.547 420.984 178.12 422.264 177.608L425.336 161.48H435.832V185.8C434.211 186.483 431.992 187.293 429.176 188.232C426.445 189.171 423.117 189.939 419.192 190.536C415.267 191.219 410.744 191.56 405.624 191.56ZM474.167 191.048C466.487 191.048 460.386 189.768 455.863 187.208C451.426 184.563 448.268 180.808 446.391 175.944C444.514 170.995 443.575 165.107 443.575 158.28C443.575 153.928 444.13 149.661 445.239 145.48C446.434 141.299 448.311 137.544 450.871 134.216C453.516 130.888 457.015 128.243 461.367 126.28C465.719 124.317 471.052 123.336 477.367 123.336C484.45 123.336 490.124 124.701 494.391 127.432C498.658 130.163 501.73 133.96 503.607 138.824C505.57 143.603 506.551 149.107 506.551 155.336C506.551 159.773 506.039 164.125 505.015 168.392C504.076 172.659 502.37 176.499 499.895 179.912C497.506 183.325 494.22 186.056 490.039 188.104C485.858 190.067 480.567 191.048 474.167 191.048ZM476.215 179.784C479.543 179.784 481.89 178.675 483.255 176.456C484.62 174.237 485.431 171.379 485.687 167.88C486.028 164.296 486.199 160.584 486.199 156.744C486.199 151.368 485.943 147.059 485.431 143.816C485.004 140.573 484.023 138.227 482.487 136.776C481.036 135.24 478.775 134.472 475.703 134.472C472.29 134.472 469.73 135.24 468.023 136.776C466.402 138.227 465.335 140.573 464.823 143.816C464.311 147.059 464.055 151.368 464.055 156.744C464.055 161.864 464.268 166.131 464.695 169.544C465.122 172.957 466.188 175.517 467.895 177.224C469.687 178.931 472.46 179.784 476.215 179.784ZM512.057 189V181.32L522.169 179.528V136.776L512.057 134.6V126.408L535.481 123.72L539.833 130.376H540.345C543.588 128.157 546.916 126.451 550.329 125.256C553.742 123.976 556.772 123.336 559.417 123.336C565.732 123.336 570.425 124.872 573.497 127.944C576.569 131.016 578.105 135.709 578.105 142.024V179.528L587.321 181.32V189H551.097V181.32L559.033 179.528V145.352C559.033 141.427 558.478 138.824 557.369 137.544C556.26 136.264 553.828 135.624 550.073 135.624C548.964 135.624 547.769 135.667 546.489 135.752C545.209 135.837 543.46 136.093 541.241 136.52V179.528L549.177 181.32V189H512.057ZM618.592 190.408C613.899 190.408 610.144 189.725 607.328 188.36C604.597 186.995 602.635 184.947 601.44 182.216C600.331 179.485 599.776 176.115 599.776 172.104V135.496H586.72V126.408L599.776 123.72L606.304 107.464H618.848V125H636.896V131.528L635.104 135.496H618.848V169.288C618.848 172.957 619.488 175.347 620.768 176.456C622.133 177.565 623.883 178.12 626.016 178.12C627.723 178.12 629.387 177.949 631.008 177.608C632.629 177.181 634.123 176.627 635.488 175.944L638.048 183.24C635.829 185.459 632.971 187.208 629.472 188.488C625.973 189.768 622.347 190.408 618.592 190.408ZM675.197 190.664C668.968 190.664 663.464 189.811 658.685 188.104C653.906 186.312 650.152 183.069 647.421 178.376C644.69 173.683 643.325 166.984 643.325 158.28C643.325 150.856 644.648 144.584 647.293 139.464C649.938 134.259 653.565 130.333 658.173 127.688C662.866 124.957 668.2 123.592 674.173 123.592C679.634 123.592 684.114 124.445 687.613 126.152C691.112 127.773 693.8 129.949 695.677 132.68C697.64 135.325 698.962 138.184 699.645 141.256C700.413 144.328 700.797 147.315 700.797 150.216C700.797 154.568 700.285 157.427 699.261 158.792C698.237 160.072 696.786 160.712 694.909 160.712H663.805C663.89 164.723 664.402 168.093 665.341 170.824C666.28 173.469 667.901 175.432 670.205 176.712C672.509 177.992 675.624 178.632 679.549 178.632C685.01 178.632 689.106 178.163 691.837 177.224C694.568 176.285 696.104 175.731 696.445 175.56L699.133 181.576C698.792 181.917 697.597 182.856 695.549 184.392C693.586 185.843 690.898 187.251 687.485 188.616C684.072 189.981 679.976 190.664 675.197 190.664ZM663.677 151.496L680.573 150.472C680.829 148.936 680.957 147.656 680.957 146.632C680.957 142.621 680.53 139.763 679.677 138.056C678.824 136.264 676.861 135.368 673.789 135.368C670.973 135.368 668.84 136.136 667.389 137.672C666.024 139.123 665.085 141.085 664.573 143.56C664.146 145.949 663.848 148.595 663.677 151.496ZM707.057 189V181.32L717.169 179.528V136.776L707.057 134.6V126.408L730.481 123.72L734.833 130.376H735.345C738.588 128.157 741.916 126.451 745.329 125.256C748.742 123.976 751.772 123.336 754.417 123.336C760.732 123.336 765.425 124.872 768.497 127.944C771.569 131.016 773.105 135.709 773.105 142.024V179.528L782.321 181.32V189H746.097V181.32L754.033 179.528V145.352C754.033 141.427 753.478 138.824 752.369 137.544C751.26 136.264 748.828 135.624 745.073 135.624C743.964 135.624 742.769 135.667 741.489 135.752C740.209 135.837 738.46 136.093 736.241 136.52V179.528L744.177 181.32V189H707.057ZM813.592 190.408C808.899 190.408 805.144 189.725 802.328 188.36C799.597 186.995 797.635 184.947 796.44 182.216C795.331 179.485 794.776 176.115 794.776 172.104V135.496H781.72V126.408L794.776 123.72L801.304 107.464H813.848V125H831.896V131.528L830.104 135.496H813.848V169.288C813.848 172.957 814.488 175.347 815.768 176.456C817.133 177.565 818.883 178.12 821.016 178.12C822.723 178.12 824.387 177.949 826.008 177.608C827.629 177.181 829.123 176.627 830.488 175.944L833.048 183.24C830.829 185.459 827.971 187.208 824.472 188.488C820.973 189.768 817.347 190.408 813.592 190.408ZM838.709 189V181.32L848.821 178.76V116.296L838.709 113.736V106.056H902.197V131.144H892.725L889.269 116.68H873.397L869.429 117.576V143.816H882.613L885.813 134.6H892.981V165.064H885.813L882.613 154.44H869.429V178.888L878.261 181.576V189H838.709ZM906.158 189V181.32L916.27 179.528V112.84L905.774 110.664V102.472L929.966 99.528L935.342 101.576V179.528L943.918 181.32V189H906.158ZM976.083 190.664C969.342 190.664 964.435 189.213 961.363 186.312C958.376 183.411 956.883 178.803 956.883 172.488V137.288L946.771 135.112V126.92L970.835 124.104L975.955 125.896V168.136C975.955 171.805 976.638 174.451 978.003 176.072C979.368 177.693 982.099 178.504 986.195 178.504C987.816 178.504 989.438 178.333 991.059 177.992C992.68 177.565 993.875 177.224 994.643 176.968V137.288L984.275 135.112V126.92L1008.34 124.104L1013.59 125.896V176.968L1024.08 179.016V187.336L1000.15 190.408L995.795 184.776H994.515C992.04 186.483 989.054 187.891 985.555 189C982.142 190.109 978.984 190.664 976.083 190.664ZM1055.99 189V181.32L1063.03 180.168V179.144L1032.56 136.648L1022.19 132.936V125.384H1059.95V132.936L1052.66 133.96V134.984L1083.12 177.608L1092.59 181.32V189H1055.99ZM1022.32 189V181.32L1030.64 179.656L1049.2 157.256L1055.99 166.856L1046 178.888V179.784L1053.04 181.32V189H1022.32ZM1065.97 155.848L1059.7 146.504L1069.43 135.112V134.216L1062.9 132.936V125.384H1091.95V133.064L1084.15 134.728L1065.97 155.848Z" fill="#42175B"/>
</svg>
